<svg width="30" height="30" viewBox="0 0 30 30" fill="none" xmlns="http://www.w3.org/2000/svg">
<path d="M18.48 8.47826L15.0017 5L11.5234 8.47826" stroke="#6F7882" stroke-width="1.5" stroke-linecap="round" stroke-linejoin="round"/>
<path d="M10.073 12.1741C10.073 12.5777 9.91269 12.9647 9.62731 13.2501C9.34193 13.5355 8.95487 13.6958 8.55128 13.6958H7.53736C7.13377 13.6958 6.74671 13.5355 6.46133 13.2501C6.17595 12.9647 6.01562 12.5777 6.01562 12.1741C6.01562 11.7705 6.17595 11.3834 6.46133 11.0981C6.74671 10.8127 7.13377 10.6523 7.53736 10.6523H8.55128C8.95487 10.6523 9.34193 10.8127 9.62731 11.0981C9.91269 11.3834 10.073 11.7705 10.073 12.1741Z" stroke="#6F7882" stroke-width="1.5" stroke-linecap="round" stroke-linejoin="round"/>
<path d="M17.03 12.1741C17.03 12.5777 16.8697 12.9647 16.5843 13.2501C16.299 13.5355 15.9119 13.6958 15.5083 13.6958H14.4944C14.0908 13.6958 13.7037 13.5355 13.4184 13.2501C13.133 12.9647 12.9727 12.5777 12.9727 12.1741C12.9727 11.7705 13.133 11.3834 13.4184 11.0981C13.7037 10.8127 14.0908 10.6523 14.4944 10.6523H15.5083C15.9119 10.6523 16.299 10.8127 16.5843 11.0981C16.8697 11.3834 17.03 11.7705 17.03 12.1741Z" stroke="#6F7882" stroke-width="1.5" stroke-linecap="round" stroke-linejoin="round"/>
<path d="M23.9871 12.1741C23.9871 12.5777 23.8268 12.9647 23.5414 13.2501C23.256 13.5355 22.8689 13.6958 22.4653 13.6958H21.4514C21.0478 13.6958 20.6608 13.5355 20.3754 13.2501C20.09 12.9647 19.9297 12.5777 19.9297 12.1741C19.9297 11.7705 20.09 11.3834 20.3754 11.0981C20.6608 10.8127 21.0478 10.6523 21.4514 10.6523H22.4653C22.8689 10.6523 23.256 10.8127 23.5414 11.0981C23.8268 11.3834 23.9871 11.7705 23.9871 12.1741Z" stroke="#6F7882" stroke-width="1.5" stroke-linecap="round" stroke-linejoin="round"/>
<path d="M10.073 17.8264C10.073 18.23 9.91269 18.6171 9.62731 18.9025C9.34193 19.1878 8.95487 19.3482 8.55128 19.3482H7.53736C7.13377 19.3482 6.74671 19.1878 6.46133 18.9025C6.17595 18.6171 6.01562 18.23 6.01562 17.8264C6.01562 17.4228 6.17595 17.0358 6.46133 16.7504C6.74671 16.465 7.13377 16.3047 7.53736 16.3047H8.55128C8.95487 16.3047 9.34193 16.465 9.62731 16.7504C9.91269 17.0358 10.073 17.4228 10.073 17.8264Z" stroke="#6F7882" stroke-width="1.5" stroke-linecap="round" stroke-linejoin="round"/>
<path d="M17.03 17.8264C17.03 18.23 16.8697 18.6171 16.5843 18.9025C16.299 19.1878 15.9119 19.3482 15.5083 19.3482H14.4944C14.0908 19.3482 13.7037 19.1878 13.4184 18.9025C13.133 18.6171 12.9727 18.23 12.9727 17.8264C12.9727 17.4228 13.133 17.0358 13.4184 16.7504C13.7037 16.465 14.0908 16.3047 14.4944 16.3047H15.5083C15.9119 16.3047 16.299 16.465 16.5843 16.7504C16.8697 17.0358 17.03 17.4228 17.03 17.8264Z" stroke="#6F7882" stroke-width="1.5" stroke-linecap="round" stroke-linejoin="round"/>
<path d="M23.9871 17.8264C23.9871 18.23 23.8268 18.6171 23.5414 18.9025C23.256 19.1878 22.8689 19.3482 22.4653 19.3482H21.4514C21.0478 19.3482 20.6608 19.1878 20.3754 18.9025C20.09 18.6171 19.9297 18.23 19.9297 17.8264C19.9297 17.4228 20.09 17.0358 20.3754 16.7504C20.6608 16.465 21.0478 16.3047 21.4514 16.3047H22.4653C22.8689 16.3047 23.256 16.465 23.5414 16.7504C23.8268 17.0358 23.9871 17.4228 23.9871 17.8264Z" stroke="#6F7882" stroke-width="1.5" stroke-linecap="round" stroke-linejoin="round"/>
<path d="M10.073 23.4788C10.073 23.8824 9.91269 24.2694 9.62731 24.5548C9.34193 24.8402 8.95487 25.0005 8.55128 25.0005H7.53736C7.13377 25.0005 6.74671 24.8402 6.46133 24.5548C6.17595 24.2694 6.01562 23.8824 6.01562 23.4788C6.01562 23.0752 6.17595 22.6881 6.46133 22.4027C6.74671 22.1174 7.13377 21.957 7.53736 21.957H8.55128C8.95487 21.957 9.34193 22.1174 9.62731 22.4027C9.91269 22.6881 10.073 23.0752 10.073 23.4788Z" stroke="#6F7882" stroke-width="1.5" stroke-linecap="round" stroke-linejoin="round"/>
<path d="M17.03 23.4788C17.03 23.8824 16.8697 24.2694 16.5843 24.5548C16.299 24.8402 15.9119 25.0005 15.5083 25.0005H14.4944C14.0908 25.0005 13.7037 24.8402 13.4184 24.5548C13.133 24.2694 12.9727 23.8824 12.9727 23.4788C12.9727 23.0752 13.133 22.6881 13.4184 22.4027C13.7037 22.1174 14.0908 21.957 14.4944 21.957H15.5083C15.9119 21.957 16.299 22.1174 16.5843 22.4027C16.8697 22.6881 17.03 23.0752 17.03 23.4788Z" stroke="#6F7882" stroke-width="1.5" stroke-linecap="round" stroke-linejoin="round"/>
<path d="M23.9871 23.4788C23.9871 23.8824 23.8268 24.2694 23.5414 24.5548C23.256 24.8402 22.8689 25.0005 22.4653 25.0005H21.4514C21.0478 25.0005 20.6608 24.8402 20.3754 24.5548C20.09 24.2694 19.9297 23.8824 19.9297 23.4788C19.9297 23.0752 20.09 22.6881 20.3754 22.4027C20.6608 22.1174 21.0478 21.957 21.4514 21.957H22.4653C22.8689 21.957 23.256 22.1174 23.5414 22.4027C23.8268 22.6881 23.9871 23.0752 23.9871 23.4788Z" stroke="#6F7882" stroke-width="1.5" stroke-linecap="round" stroke-linejoin="round"/>
</svg>
