<svg width="30" height="31" viewBox="0 0 30 31" fill="none" xmlns="http://www.w3.org/2000/svg">
<path d="M4.87175 6.03167C4.87175 6.03167 3.30078 6.31242 3.30078 7.63242V17.2369C3.30078 22.3731 10.8771 28.0889 13.4524 29.7868C13.9656 30.1283 14.6296 30.1283 15.1428 29.7868C17.7181 28.0889 25.2944 22.3731 25.2944 17.2369V7.63242C25.2944 6.31242 23.7234 6.03167 23.7234 6.03167L15.2093 3.36228C14.6155 3.17612 13.9797 3.17612 13.386 3.36228L4.87175 6.03167Z" fill="#F0F0F0"/>
<path d="M6.77352 4.89183C6.79969 4.887 6.82556 4.88058 6.85097 4.87261L15.3652 2.20321C15.8307 2.05726 16.3292 2.05726 16.7947 2.20321L25.3089 4.87261C25.3343 4.88058 25.3602 4.887 25.3864 4.89183C25.3874 4.89203 25.3885 4.89222 25.3895 4.89242L25.3891 4.89233L25.3882 4.89218L25.387 4.89196L25.3903 4.89262C25.3956 4.89372 25.406 4.89594 25.4205 4.89942C25.4498 4.90641 25.4953 4.91828 25.5514 4.93616C25.666 4.97268 25.8122 5.03031 25.9527 5.11441C26.2328 5.28218 26.4138 5.499 26.4138 5.83515V15.4397C26.4138 16.5615 25.998 17.763 25.2814 18.9895C24.5672 20.2121 23.5783 21.4181 22.4928 22.5365C20.321 24.7742 17.8248 26.5978 16.5622 27.4302L16.5599 27.4317C16.2682 27.6258 15.8916 27.6258 15.6 27.4317L15.5976 27.4302C14.335 26.5978 11.8388 24.7742 9.66705 22.5365C8.58157 21.4181 7.59262 20.2121 6.87841 18.9895C6.16187 17.763 5.74609 16.5615 5.74609 15.4397V5.83515C5.74609 5.499 5.92702 5.28218 6.20719 5.11441C6.34762 5.03031 6.49391 4.97268 6.6085 4.93616C6.66459 4.91828 6.71007 4.90641 6.73936 4.89942C6.75393 4.89594 6.76426 4.89372 6.76963 4.89262L6.77352 4.89183ZM6.77077 4.89233L6.77071 4.89234C6.77075 4.89233 6.77079 4.89233 6.77083 4.89233L6.77077 4.89233Z" stroke="#6F7882" stroke-linecap="round" stroke-linejoin="round"/>
</svg>
