<svg width="26" height="31" viewBox="0 0 26 31" fill="none" xmlns="http://www.w3.org/2000/svg">
<g clip-path="url(#clip0_2214_749)">
<path d="M1.74399 4.64356C1.74399 4.64356 0 4.95508 0 6.40194V16.9453C0 22.5804 8.41422 28.8524 11.2699 30.7215C11.8397 31.0953 12.5762 31.0953 13.1459 30.7215C16.0086 28.8593 24.4158 22.5873 24.4158 16.9453V6.40194C24.4158 4.95508 22.6718 4.64356 22.6718 4.64356L13.2432 1.72217C12.5692 1.51449 11.8466 1.51449 11.1726 1.72217L1.74399 4.64356Z" fill="#E7EFFD"/>
<path d="M3.8617 3.41443C3.8617 3.41443 3.91729 3.40058 3.95203 3.39366L13.3807 0.472265C13.9087 0.30612 14.4785 0.30612 15.0065 0.472265L24.4352 3.39366C24.4352 3.39366 24.4908 3.4075 24.5255 3.41443C24.5255 3.41443 24.5394 3.41443 24.5603 3.42135C24.595 3.42827 24.6436 3.44212 24.7062 3.46289C24.8312 3.50442 24.991 3.56673 25.1509 3.65672C25.4566 3.83671 25.6581 4.07209 25.6581 4.43207V14.9754C25.6581 16.2007 25.1995 17.516 24.4005 18.866C23.6084 20.209 22.5106 21.5312 21.3085 22.7565C18.8975 25.2141 16.1252 27.2148 14.7286 28.1217C14.409 28.3293 13.9991 28.3293 13.6795 28.1217C12.2759 27.2079 9.51056 25.2072 7.09955 22.7496C5.89751 21.5243 4.79971 20.2021 4.00762 18.859C3.21553 17.516 2.75 16.2007 2.75 14.9685V4.43207C2.75 4.07209 2.94455 3.83671 3.25722 3.65672C3.41007 3.56673 3.56988 3.50442 3.7019 3.46289C3.76443 3.44212 3.81307 3.42827 3.84781 3.42135C3.8617 3.42135 3.8756 3.42135 3.88255 3.41443H3.8617Z" stroke="#0046C7" stroke-width="0.5"/>
<path d="M8.14421 10.8555H7.44244L8.14421 12.5031L7.52582 13.9292L6.20567 10.8555H5.50391L7.31043 15.0922H7.74816L8.49856 13.3477L9.24896 15.0922H9.6867L11.4932 10.8555H10.7915L9.4713 13.9569L8.15115 10.8555H8.14421Z" fill="#0046C7"/>
<path d="M14.8285 10.8555L13.6195 12.9877L12.4106 10.8555H11.6602L13.3138 13.7422V15.0714H13.953V13.7422L15.5789 10.8555H14.8285Z" fill="#0046C7"/>
<path d="M19.5195 15.0941H22.8616V14.3672H19.5195V15.0941Z" fill="#0046C7"/>
<path d="M19.5195 11.5824H22.8616V10.8555H19.5195V11.5824Z" fill="#0046C7"/>
<path d="M19.5195 13.3284H22.8616V12.6016H19.5195V13.3284Z" fill="#0046C7"/>
<path d="M15.7718 10.8555V11.5616H17.9744L15.5078 15.0991H19.0931V14.3999H16.828L19.3154 10.8624H15.7718V10.8555Z" fill="#0046C7"/>
</g>
<defs>
<clipPath id="clip0_2214_749">
<rect width="26" height="31" fill="white"/>
</clipPath>
</defs>
</svg>
