<svg width="32" height="32" viewBox="0 0 32 32" fill="none" xmlns="http://www.w3.org/2000/svg">
<path d="M22.4388 8.10667C22.4388 8.90666 21.9055 9.43999 21.1055 9.43999H10.4388C9.6388 9.43999 9.10547 8.90666 9.10547 8.10667V2.10675C9.10547 1.30676 9.6388 0.773438 10.4388 0.773438H21.1055C21.9055 0.773438 22.4388 1.30676 22.4388 2.10675V8.10667Z" stroke="#6F7882" stroke-width="1.55" stroke-miterlimit="10" stroke-linecap="round" stroke-linejoin="round"/>
<path d="M13.5078 4.77344V5.4401" stroke="#6F7882" stroke-width="1.55" stroke-miterlimit="10" stroke-linecap="round" stroke-linejoin="round"/>
<path d="M18.1719 4.77344V5.4401" stroke="#6F7882" stroke-width="1.55" stroke-miterlimit="10" stroke-linecap="round" stroke-linejoin="round"/>
<path d="M21.9911 15.5078C18.6127 18.8411 12.937 18.8411 9.55859 15.5078" stroke="#6F7882" stroke-width="1.55" stroke-miterlimit="10" stroke-linecap="round" stroke-linejoin="round"/>
<path d="M26.3155 19.7734C20.5047 25.5067 11.0452 25.5067 5.23438 19.7734" stroke="#6F7882" stroke-width="1.55" stroke-miterlimit="10" stroke-linecap="round" stroke-linejoin="round"/>
<path d="M30.7734 24.8404C22.395 32.8403 9.15181 32.7069 0.773438 24.707" stroke="#6F7882" stroke-width="1.55" stroke-miterlimit="10" stroke-linecap="round" stroke-linejoin="round"/>
</svg>
